<?xml version="1.0" encoding="UTF-8"?>
<svg id="Layer_1" xmlns="http://www.w3.org/2000/svg" version="1.1" viewBox="0 0 305.4 63.6">
  <!-- Generator: Adobe Illustrator 29.1.0, SVG Export Plug-In . SVG Version: 2.1.0 Build 142)  -->
  <g id="_x30_c23f5ade1">
    <path d="M3,15.7V4.4h39.6v11.3h-13.4v45.1h-12.8V15.7H3Z"/>
    <path d="M46.2,60.8V2.1h12.1v27.4h.1c3.1-3.1,6.5-4.7,10-4.7s3.4.2,5.1.7c1.7.4,3.3,1.1,4.9,2.1,1.6,1,2.8,2.3,3.8,4.1,1,1.8,1.5,3.8,1.5,6.1v23.1h-12.1v-19.8c0-1.8-.6-3.4-1.8-4.8-1.2-1.4-2.7-2.1-4.5-2.1s-3.5.7-5,2.1c-1.5,1.4-2.2,3-2.2,4.7v19.8h-12.1Z"/>
    <path d="M125.8,44.9h-25.4c0,2.5.8,4.3,2.4,5.5,1.6,1.2,3.3,1.8,5.2,1.8s3.5-.3,4.6-.8c1.1-.5,2.4-1.6,3.9-3.1l8.7,4.4c-3.6,6.1-9.7,9.1-18.2,9.1s-9.8-1.8-13.6-5.4c-3.8-3.6-5.7-8-5.7-13.1s1.9-9.5,5.7-13.1c3.8-3.6,8.3-5.5,13.6-5.5s10.1,1.6,13.6,4.8c3.5,3.2,5.2,7.8,5.2,13.8s0,1.4,0,1.6ZM100.7,38.2h13.3c-.3-1.8-1-3.2-2.2-4.2-1.2-1-2.6-1.5-4.5-1.5s-3.6.5-4.8,1.6c-1.2,1-1.8,2.4-1.9,4.1Z"/>
    <path d="M126.4,60.8"/>
    <path d="M195.4,4.4l-27.9,45.1h26.1v11.3h-48.5l27.9-45.1h-23.9V4.4h46.4Z"/>
    <path d="M202.9,56.6c-3.9-3.5-5.8-7.9-5.8-13.3s2-9.9,6.1-13.3c4.1-3.5,9.1-5.2,15-5.2s10.8,1.8,14.9,5.3c4,3.5,6,7.9,6,13.3s-2,9.8-5.9,13.3c-3.9,3.5-8.9,5.2-15,5.2s-11.4-1.7-15.3-5.2ZM212.2,37.4c-1.6,1.5-2.4,3.5-2.4,5.9s.8,4.4,2.3,5.9c1.5,1.5,3.5,2.3,6,2.3s4.3-.8,5.8-2.3c1.5-1.6,2.3-3.5,2.3-5.9s-.8-4.4-2.4-5.9c-1.6-1.5-3.5-2.3-5.8-2.3s-4.3.8-5.9,2.3Z"/>
    <path d="M247,56.6c-3.9-3.5-5.8-7.9-5.8-13.3s2-9.9,6.1-13.3c4.1-3.5,9.1-5.2,15-5.2s10.8,1.8,14.9,5.3c4,3.5,6,7.9,6,13.3s-2,9.8-5.9,13.3c-3.9,3.5-8.9,5.2-15,5.2s-11.4-1.7-15.3-5.2ZM256.3,37.4c-1.6,1.5-2.4,3.5-2.4,5.9s.8,4.4,2.3,5.9c1.5,1.5,3.5,2.3,6,2.3s4.3-.8,5.8-2.3c1.5-1.6,2.3-3.5,2.3-5.9s-.8-4.4-2.4-5.9c-1.6-1.5-3.5-2.3-5.8-2.3s-4.3.8-5.9,2.3Z"/>
    <path d="M295.5,46.2c2.2,0,4,.8,5.6,2.3,1.5,1.5,2.3,3.4,2.3,5.6s-.8,4-2.3,5.5c-1.5,1.5-3.4,2.3-5.6,2.3s-4-.8-5.5-2.3c-1.5-1.5-2.3-3.4-2.3-5.5s.8-4,2.3-5.6c1.5-1.5,3.4-2.3,5.5-2.3Z"/>
  </g>
</svg>